<mxfile host="app.diagrams.net" modified="2023-10-24T09:29:07.846Z" agent="Mozilla/5.0 (Macintosh; Intel Mac OS X 10_15_7) AppleWebKit/537.36 (KHTML, like Gecko) Chrome/118.0.0.0 Safari/537.36" version="22.0.6" etag="i1eK5xSHIHo0ARCIUKgR" type="github">
  <diagram name="第 1 页" id="X8UtPTrUmx7SSUqi_l0i">
    <mxGraphModel>
      <root>
        <mxCell id="0" />
        <mxCell id="1" parent="0" />
      </root>
    </mxGraphModel>
  </diagram>
</mxfile>
